# xmcd
#
# Track frame offsets: 
#        150
#        20686
#        44571
#        67693
#        93539
#        117436
#        141798
#        182719
#        212807
#        237266
#        264993
#        291828
#
# Disc length: 4235 seconds
#
# Revision: 0
# Processed by: cddbd v1.5.2PL0 Copyright (c) Steve Scherf et al.
# Submitted via: ExactAudioCopyFreeDBPlugin 1.0
#
DISCID=b110890c
DTITLE=Thuy Huong - Lung lieng
DYEAR=1900
DGENRE=
TTITLE0=Song cau nuoc chay lo trho
TTITLE1=Dao nguyen
TTITLE2=Lung lieng
TTITLE3=An o trong rung
TTITLE4=Ke chuyen 4 mua
TTITLE5=Co ai xuoi ve
TTITLE6=Cay xanh
TTITLE7=Tuan klhanh
TTITLE8=Von em co 30 dong
TTITLE9=Chm khon
TTITLE10=Dem qua nho ban
TTITLE11=Nho mai khon nguoi
EXTD=
EXTT0=
EXTT1=
EXTT2=
EXTT3=
EXTT4=
EXTT5=
EXTT6=
EXTT7=
EXTT8=
EXTT9=
EXTT10=
EXTT11=
PLAYORDER=
